<svg width="2173" height="477" viewBox="0 0 2173 477" fill="none" xmlns="http://www.w3.org/2000/svg">
<path d="M85.4411 6.10799C155.28 6.10799 222.642 43.2563 287.528 117.553C307.34 156.682 317.246 194.574 317.246 231.227C317.246 317.411 273.411 380.81 185.741 421.426C157.509 433.809 127.047 440 94.3566 440H75.7825C57.456 439.505 48.2928 431.827 48.2928 416.968H46.0639C46.0639 403.595 54.4842 396.66 71.3247 396.165H88.4129V391.707H89.8989C59.1896 261.441 43.835 164.607 43.835 101.208H41.6061L23.0319 113.095C10.1539 113.095 2.47655 104.427 0 87.0913C0 59.8492 15.3546 36.0743 46.0639 15.7666C58.4466 9.32752 71.5724 6.10799 85.4411 6.10799ZM94.3566 49.943H88.4129V85.6053C88.4129 166.836 103.768 268.87 134.477 391.707H136.706C228.338 366.942 274.154 313.448 274.154 231.227C274.154 143.061 222.89 84.1194 120.36 54.4008C114.417 51.4289 105.749 49.943 94.3566 49.943ZM485.354 153.215C507.148 153.215 518.044 161.883 518.044 179.219L511.358 193.335L506.9 329.298C506.9 390.717 519.283 428.856 544.048 443.715L545.534 454.859C544.048 469.223 537.362 476.405 525.474 476.405H521.016C483.868 451.144 465.294 412.51 465.294 360.503H460.093C440.281 415.977 416.258 443.715 388.025 443.715C361.774 436.285 348.648 416.72 348.648 385.021C348.648 315.182 376.633 245.591 432.603 176.247C451.425 160.893 469.009 153.215 485.354 153.215ZM395.455 355.302L392.483 376.105V390.221H399.913C437.061 297.598 455.635 241.133 455.635 220.825H452.663C423.935 253.02 404.866 297.846 395.455 355.302ZM574.504 189.621C585.896 189.621 598.279 216.863 611.652 271.347C630.474 314.934 641.123 337.966 643.6 340.443C646.076 340.443 655.24 315.677 671.09 266.146C686.939 216.615 702.046 191.849 716.41 191.849C729.784 196.803 736.471 204.728 736.471 215.624C695.36 321.621 674.804 391.707 674.804 425.884L660.688 440H646.572C628.74 427.122 598.527 359.017 555.93 235.684L549.243 208.195C552.71 195.812 561.131 189.621 574.504 189.621ZM776.881 52.9149C795.703 56.8773 805.114 65.2976 805.114 78.1757C800.161 92.0444 792.236 98.9787 781.339 98.9787C763.012 95.5116 753.849 86.3483 753.849 71.489C758.802 59.1062 766.479 52.9149 776.881 52.9149ZM805.114 156.93C813.039 156.93 819.725 164.112 825.174 178.476L818.487 231.227V266.146C818.487 306.761 825.421 360.007 839.29 425.884C834.337 435.295 825.917 440 814.029 440C793.721 440 780.348 380.563 773.909 261.688V235.684C773.909 183.182 784.311 156.93 805.114 156.93ZM1052.12 32.1118C1060.54 32.1118 1068.22 40.0368 1075.15 55.8867L1042.46 262.431V320.383C1042.46 380.81 1051.87 411.024 1070.69 411.024C1083.08 416.968 1089.27 424.893 1089.27 434.799C1089.27 446.191 1079.36 452.878 1059.55 454.859C1037.76 454.859 1020.67 434.799 1008.29 394.679H1000.86C982.53 434.799 960.241 454.859 933.989 454.859C903.28 454.859 884.706 431.58 878.267 385.021C878.267 331.032 914.424 273.823 986.74 213.395C1001.1 213.395 1008.29 193.335 1008.29 153.215C1019.18 72.4796 1033.79 32.1118 1052.12 32.1118ZM922.102 379.077V399.137L933.989 411.024H938.447C954.297 411.024 972.871 363.227 994.169 267.632H989.712C944.638 312.705 922.102 349.853 922.102 379.077ZM1620.69 0.164301H1628.12C1641.99 0.164301 1649.91 8.33692 1651.89 24.6822C1651.89 39.0462 1632.33 46.2282 1593.2 46.2282C1530.29 70.0031 1487.94 104.675 1466.15 150.243L1460.95 171.789V176.247C1460.95 198.041 1475.56 208.938 1504.78 208.938L1586.51 204.48C1641.49 204.48 1678.64 231.227 1697.96 284.72L1702.41 310.724C1702.41 362.236 1660.81 409.291 1577.59 451.887C1552.83 458.822 1531.04 463.527 1512.21 466.004C1461.69 466.004 1426.03 437.523 1405.23 380.563C1399.28 361.246 1396.31 341.681 1396.31 321.868C1396.31 315.925 1401.02 309.733 1410.43 303.294H1419.34C1434.7 303.294 1442.37 322.859 1442.37 361.989C1455.25 400.623 1475.56 419.94 1503.3 419.94H1523.36C1563.48 419.94 1603.1 396.66 1642.23 350.101C1652.63 335.242 1657.84 319.144 1657.84 301.808C1657.84 277.538 1638.77 260.45 1600.63 250.544H1597.65L1500.33 252.773C1446.34 246.334 1419.34 224.045 1419.34 185.906L1416.37 176.247C1416.37 125.23 1454.51 75.6991 1530.79 27.654C1563.97 9.32754 1593.94 0.164301 1620.69 0.164301ZM1763.39 216.367L1776.77 208.938C1788.66 208.938 1797.32 216.12 1802.77 230.484C1794.85 267.137 1790.88 304.78 1790.88 343.414C1790.88 362.732 1796.58 383.782 1807.97 406.567H1812.43C1826.79 406.567 1843.88 349.853 1863.69 236.427C1870.63 230.484 1877.32 227.512 1883.75 227.512C1899.11 227.512 1906.79 254.754 1906.79 309.238C1913.23 369.171 1920.41 399.137 1928.33 399.137L1939.48 394.679C1953.84 400.128 1961.02 407.805 1961.02 417.711C1952.11 436.533 1939.72 445.944 1923.87 445.944C1906.04 445.944 1888.96 428.113 1872.61 392.45C1852.8 434.056 1832.74 454.859 1812.43 454.859C1782.22 454.859 1761.17 423.407 1749.28 360.503L1747.05 336.728V329.298C1747.05 289.673 1752.5 252.03 1763.39 216.367ZM2019.08 30.6259C2032.95 35.579 2039.89 43.2563 2039.89 53.6578L2047.32 336.728V428.113C2047.32 444.953 2040.14 453.373 2025.77 453.373H2016.11C2007.2 447.43 2002.74 440.495 2002.74 432.57V346.386L1996.05 52.1719C1996.05 39.7891 2003.73 32.6071 2019.08 30.6259ZM2109.72 52.9149C2128.54 56.8773 2137.95 65.2976 2137.95 78.1757C2133 92.0444 2125.08 98.9787 2114.18 98.9787C2095.85 95.5116 2086.69 86.3483 2086.69 71.489C2091.64 59.1062 2099.32 52.9149 2109.72 52.9149ZM2137.95 156.93C2145.88 156.93 2152.57 164.112 2158.01 178.476L2151.33 231.227V266.146C2151.33 306.761 2158.26 360.007 2172.13 425.884C2167.18 435.295 2158.76 440 2146.87 440C2126.56 440 2113.19 380.563 2106.75 261.688V235.684C2106.75 183.182 2117.15 156.93 2137.95 156.93Z" fill="#43766C"/>
</svg>
